<?xml version="1.0" standalone="no"?>
<!DOCTYPE svg PUBLIC "-//W3C//DTD SVG 20010904//EN"
 "http://www.w3.org/TR/2001/REC-SVG-20010904/DTD/svg10.dtd">
<svg version="1.0" xmlns="http://www.w3.org/2000/svg"
 width="260.000000pt" height="260.000000pt" viewBox="0 0 260.000000 260.000000"
 preserveAspectRatio="xMidYMid meet">
<metadata>
Created by potrace 1.14, written by Peter Selinger 2001-2017
</metadata>
<g transform="translate(0.000000,260.000000) scale(0.100000,-0.100000)"
fill="#000000" stroke="none">
<path d="M535 2584 c-33 -8 -69 -18 -80 -23 -222 -93 -356 -234 -427 -446
l-23 -70 -2 -720 c-1 -571 1 -733 12 -781 57 -261 249 -459 510 -524 76 -20
107 -20 800 -18 l720 3 78 27 c214 73 372 231 445 445 l27 78 0 745 0 745 -27
78 c-81 238 -271 410 -512 462 -92 20 -1436 19 -1521 -1z"/>
</g>
</svg>
